<svg id="Layer_1" data-name="Layer 1" xmlns="http://www.w3.org/2000/svg" viewBox="0 0 600 600"><defs><style>.cls-1{fill:#000;}</style></defs><title>Final Logo</title><path class="cls-1" d="M380.6,392.72s-5.46-10.61-82.8-187.7l-11.51-31.55H172.2v2.86c6.68.51,15.77.47,28.32,10.9a77.15,77.15,0,0,1,21.12,28.57l23.05,52.8h0l.21.49,33.81,77.47H172.05v2h0c0,32.38-9.4,75.2-52.56,75.2v2.78H224.94v-2.78c-37.86,0-49.32-41.1-49.76-73.22H280.44l20.78,47.63c2.71,11.44,2.21,24.25-13.61,24.25v2.86H395.28l-1.48-2.86C380.6,392.72,393.48,421.33,380.6,392.72Z"/><path class="cls-1" d="M375.06,173.47v2.78c38.64,0,49.78,42.82,49.78,75.2H428c0-32.38,9.4-75.2,52.56-75.2v-2.78Z"/></svg>