<svg id="Layer_1" data-name="Layer 1" xmlns="http://www.w3.org/2000/svg" viewBox="0 0 1200 600"><title>Final Logo</title><path style="fill:#FFFFFF;"  d="M427.39,392.72S421.93,382.11,344.6,205l-11.51-31.55H219v2.86c6.68.51,15.77.47,28.32,10.9a77.07,77.07,0,0,1,21.13,28.57l23,52.8h0l.22.49,33.81,77.47H218.84v2h0c0,32.38-9.4,75.2-52.57,75.2v2.78H271.73v-2.78c-37.86,0-49.31-41.1-49.76-73.22H327.23L348,398.16c2.71,11.44,2.21,24.25-13.62,24.25v2.86H442.07l-1.48-2.86C427.39,392.72,440.27,421.33,427.39,392.72Z"/><path style="fill:#FFFFFF;"  d="M421.86,173.47v2.78c38.64,0,49.78,42.82,49.78,75.2h3.13c0-32.38,9.4-75.2,52.57-75.2v-2.78Z"/><path style="fill:#FFFFFF;"  d="M580,305.28a9.26,9.26,0,0,0-.75,2.86c0,.78.47,1.39,1.53,1.82a15.18,15.18,0,0,0,5.22.65,5.92,5.92,0,0,1,2.13.26.94.94,0,0,1,.56.93v2.33l-.62.34H562.32l-1-.23V311.8a.91.91,0,0,1,.6-1,6.91,6.91,0,0,1,2-.2,8.2,8.2,0,0,0,4.62-1.7,11.89,11.89,0,0,0,3.94-5L601,241.67a5.5,5.5,0,0,1,2.41-2.75,6.15,6.15,0,0,1,3-.88,5.66,5.66,0,0,1,5.75,3.63L638,303.92a17,17,0,0,0,3,5.08,5,5,0,0,0,3.78,1.61h3.63a3.19,3.19,0,0,1,1.62.23,1.3,1.3,0,0,1,.25,1v2.33l-.62.34H614.07L613,314V311.8c0-.79,1.13-1.19,3.38-1.19h3.44q3.18,0,3.18-3a3.31,3.31,0,0,0-.25-1.65l-7.93-19.5H591.26a9.25,9.25,0,0,0-2.69.25,2.67,2.67,0,0,0-1.25,1.39ZM593.45,281h19.19L602,254.76l-11,24.89c0,.57.14.94.41,1.11A4.84,4.84,0,0,0,593.45,281Z"/><path style="fill:#FFFFFF;"  d="M720.39,248.41a4.61,4.61,0,0,0-1.56-3.94q-1.56-1.16-5.32-1.16H711.7c-.75,0-1.12-.32-1.12-1v-2.78l.25-.06H738.2l.25.06v2.78c0,.64-.33,1-1,1h-1.81q-3.81,0-5.44,1.28a4.56,4.56,0,0,0-1.62,3.82v63.17q0,4.31-4.88,4.3a7.54,7.54,0,0,1-6-3.17l-44.81-52.84v45.75a4.58,4.58,0,0,0,1.62,3.83q1.63,1.28,5.44,1.28h1.81c.67,0,1,.35,1,1.07v2.67l-.25.11H654.2l-.25-.11V311.8a1,1,0,0,1,.35-.79,1.07,1.07,0,0,1,.71-.28h1.75q8.07,0,8.07-5.11V249.43c-.84-1-1.46-1.76-1.88-2.24s-1-1.07-1.84-1.81a7.84,7.84,0,0,0-2.5-1.59,7.71,7.71,0,0,0-2.72-.48,4.43,4.43,0,0,1-2-.31,1.06,1.06,0,0,1-.53-1v-2.22l.37-.34h18.56L720.39,295Z"/><path style="fill:#FFFFFF;"  d="M790.27,241.21A162.16,162.16,0,0,0,793,258.85l-5.12.56a42.91,42.91,0,0,0-2.22-5.92,31.71,31.71,0,0,0-3.22-5.28,13.55,13.55,0,0,0-5-4.16,15.49,15.49,0,0,0-6.91-1.48q-5.94,0-8.71,3.26a12.77,12.77,0,0,0-2.79,8.59,9.61,9.61,0,0,0,1.63,5.19,17,17,0,0,0,4.12,4.48,38.77,38.77,0,0,0,5,3.23,28.93,28.93,0,0,0,4.72,2.07q3.63,1.2,6.59,2.44a42.44,42.44,0,0,1,6.26,3.34,28.23,28.23,0,0,1,5.5,4.51,19.87,19.87,0,0,1,3.65,5.9,19.47,19.47,0,0,1,1.44,7.51q0,11.12-7,16.81t-18.53,5.7a88.12,88.12,0,0,1-9.35-.42q-3.84-.44-5.84-.85a15.6,15.6,0,0,0-3-.43,19.16,19.16,0,0,0-3.06.28,18.6,18.6,0,0,1-2.82.29q-.18-4.37-2.43-20.3l5.12-.4a23.71,23.71,0,0,0,7,12.48,16.94,16.94,0,0,0,11.66,4.64q14.56,0,14.56-13.26a15.4,15.4,0,0,0-3-9.3,17.73,17.73,0,0,0-8.65-6.12q-25.75-9.25-25.75-24a18.57,18.57,0,0,1,2.15-9,17.44,17.44,0,0,1,5.66-6.35,27.49,27.49,0,0,1,7.59-3.57,29.05,29.05,0,0,1,8.41-1.22,51.78,51.78,0,0,1,8.47.56A47.37,47.37,0,0,1,785,240,30.92,30.92,0,0,0,790.27,241.21Z"/><path style="fill:#FFFFFF;"  d="M866.39,248.41a4.57,4.57,0,0,0-1.59-3.94c-1.06-.77-2.89-1.16-5.47-1.16h-1.75a1.11,1.11,0,0,1-.72-.28.86.86,0,0,1-.34-.68v-2.78l.25-.12h35l.25.12v2.78c0,.64-.36,1-1.06,1h-1.75q-3.83,0-5.44,1.28a4.54,4.54,0,0,0-1.63,3.82v57.21a4.56,4.56,0,0,0,1.63,3.83q1.62,1.28,5.44,1.28H891A.94.94,0,0,1,892,311.8v2.67l-.25.11h-35l-.25-.11V311.8a1,1,0,0,1,.31-.79,1.08,1.08,0,0,1,.75-.28h1.75c2.58,0,4.41-.39,5.47-1.17a4.55,4.55,0,0,0,1.59-3.94v-28.4H830.58v28.4a4.62,4.62,0,0,0,1.59,3.83q1.61,1.28,5.41,1.28h1.81c.67,0,1,.35,1,1.07v2.67l-.25.11H805.21l-.26-.11V311.8c0-.72.34-1.07,1-1.07h1.82q3.87,0,5.47-1.17a4.55,4.55,0,0,0,1.59-3.94V248.41a4.57,4.57,0,0,0-1.59-3.94q-1.61-1.16-5.47-1.16H806a1,1,0,0,1-.68-.28.9.9,0,0,1-.32-.68v-2.78l.26-.12h34.93l.25.12v2.78c0,.64-.33,1-1,1h-1.81q-3.81,0-5.41,1.28a4.6,4.6,0,0,0-1.59,3.82v23.42h35.81Z"/><path style="fill:#FFFFFF;"  d="M964.4,248.41a4.53,4.53,0,0,0-1.63-3.94c-1.08-.77-2.9-1.16-5.44-1.16h-1.75a1.27,1.27,0,0,1-.84-.28.86.86,0,0,1-.34-.68v-2.78l.24-.06h28.69l.25.06v2.78c0,.64-.33,1-1,1h-1.81q-3.81,0-5.41,1.28a4.6,4.6,0,0,0-1.59,3.82v31.81c0,3.14-.11,6-.34,8.48a47.29,47.29,0,0,1-1.32,7.54,28,28,0,0,1-2.53,6.6,22.66,22.66,0,0,1-4.12,5.33,20.81,20.81,0,0,1-6,4.06,36.09,36.09,0,0,1-8.22,2.46,57.68,57.68,0,0,1-10.78.91,41.37,41.37,0,0,1-8.13-.82,36.06,36.06,0,0,1-8.5-2.92,30.23,30.23,0,0,1-7.72-5.25,23.84,23.84,0,0,1-5.5-8.22A29.06,29.06,0,0,1,908.46,287V248.41a4.54,4.54,0,0,0-1.6-3.94q-1.59-1.16-5.34-1.16h-1.75a1.24,1.24,0,0,1-.84-.28.87.87,0,0,1-.35-.68v-2.78l.25-.06h34.81l.32.06v2.78c0,.64-.36,1-1.07,1h-1.75c-2.49,0-4.28.43-5.34,1.28a4.6,4.6,0,0,0-1.59,3.82v34.7q0,3.92.12,6.1c.09,1.45.28,3.31.6,5.55a18.25,18.25,0,0,0,1.78,5.93,16.34,16.34,0,0,0,3.37,4.48q6.57,5.73,13.06,5.72a24.39,24.39,0,0,0,7.1-1,18.38,18.38,0,0,0,5.34-2.52,15.84,15.84,0,0,0,3.81-3.89,22.39,22.39,0,0,0,2.57-4.73,31.19,31.19,0,0,0,1.5-5.44,54.21,54.21,0,0,0,.75-5.59c.12-1.7.19-3.55.19-5.55Z"/><path style="fill:#FFFFFF;"  d="M1000.33,248.41a4.53,4.53,0,0,0-1.62-3.94c-1.08-.77-2.9-1.16-5.44-1.16h-1.81c-.75,0-1.13-.32-1.13-1v-2.78l.25-.12h34.82l.25.12v2.78c0,.64-.3,1-.88,1h-1.94q-3.75,0-5.31,1.28a4.64,4.64,0,0,0-1.56,3.82v55.4a6.12,6.12,0,0,0,1.12,3.94,3.9,3.9,0,0,0,3.19,1.39h11a15,15,0,0,0,6.57-1.42,14,14,0,0,0,4.9-3.86,26.51,26.51,0,0,0,3.22-5,35,35,0,0,0,2.13-5.47l5,1a118,118,0,0,0-3.13,20.18H990.83l-.5-.11v-2.33q0-1.41,2.07-1.41h4.06c1.54,0,2.57-.33,3.09-1a6,6,0,0,0,.78-3.63Z"/><path style="fill:#FFFFFF;"  d="M568.43,361.78H584v1.76H568.43V374h16.74v1.8H566.44V349.65h18.73v1.79H568.43Z"/><path style="fill:#FFFFFF;"  d="M601.05,356.12a7.26,7.26,0,0,1,5.58,2.27,8.47,8.47,0,0,1,2.11,6v11.35h-1.92V364.63a6.86,6.86,0,0,0-1.64-4.8,5.55,5.55,0,0,0-4.32-1.83,7.14,7.14,0,0,0-5.51,2.22,8.53,8.53,0,0,0-2.06,6v9.56h-1.92V356.71h1.92v4.06c1.56-3,4.17-4.53,7.84-4.53Z"/><path style="fill:#FFFFFF;"  d="M623.29,375.79h-2.11l-8.74-19.12h2.15l7.65,16.93,7.64-16.93H632Z"/><path style="fill:#FFFFFF;"  d="M637.92,349.45a1.44,1.44,0,0,1,1.05.43,1.45,1.45,0,0,1-1.05,2.5,1.44,1.44,0,0,1-1-.43,1.42,1.42,0,0,1-.43-1.05,1.47,1.47,0,0,1,1.48-1.49ZM637,375.83V356.75h1.88v19.08Z"/><path style="fill:#FFFFFF;"  d="M647.09,370.21a4.24,4.24,0,0,0,2,3.31,7.77,7.77,0,0,0,4.48,1.21,6.52,6.52,0,0,0,3.87-1.05,3.41,3.41,0,0,0,1.48-2.89,2.66,2.66,0,0,0-.94-2.18,6.54,6.54,0,0,0-2.69-1.17l-4.68-1c-3.16-.7-4.72-2.22-4.72-4.64a4.84,4.84,0,0,1,2-4,7.91,7.91,0,0,1,5-1.52,8.32,8.32,0,0,1,5,1.4,6.19,6.19,0,0,1,2.46,3.71l-1.75.47a4.83,4.83,0,0,0-1.92-2.93,6.36,6.36,0,0,0-3.86-1.09,5.76,5.76,0,0,0-3.63,1.05,3.34,3.34,0,0,0-1.36,2.73,2.54,2.54,0,0,0,.9,2.11,6,6,0,0,0,2.57,1.09l4.6,1c3.24.7,4.88,2.34,4.88,4.76a4.83,4.83,0,0,1-2,4.13,8.76,8.76,0,0,1-5.38,1.52,9.7,9.7,0,0,1-5.62-1.52,6,6,0,0,1-2.61-4.17Z"/><path style="fill:#FFFFFF;"  d="M667.84,349.45a1.48,1.48,0,0,1,1.06.43,1.48,1.48,0,1,1-2.54,1,1.48,1.48,0,0,1,.43-1.06,1.44,1.44,0,0,1,1.05-.43Zm-.93,26.38V356.75h1.87v19.08Z"/><path style="fill:#FFFFFF;"  d="M692,359.09a9.56,9.56,0,0,1,2.89,7.1,10,10,0,1,1-20,0,9.55,9.55,0,0,1,2.88-7.1,10.48,10.48,0,0,1,14.28,0Zm-7.14,15.45a7.91,7.91,0,0,0,5.81-2.34,8.66,8.66,0,0,0,0-11.86,8.38,8.38,0,0,0-11.62,0,8.06,8.06,0,0,0-2.34,5.93,8,8,0,0,0,8.15,8.23Z"/><path style="fill:#FFFFFF;"  d="M710.21,356.12a7.24,7.24,0,0,1,5.58,2.27,8.47,8.47,0,0,1,2.11,6v11.35H716V364.63a6.9,6.9,0,0,0-1.63-4.8A5.58,5.58,0,0,0,710,358a7.1,7.1,0,0,0-5.5,2.22,8.48,8.48,0,0,0-2.07,6v9.56h-1.91V356.71h1.91v4.06c1.56-3,4.17-4.53,7.84-4.53Z"/><path style="fill:#FFFFFF;"  d="M734.87,373a1.4,1.4,0,0,1,1,.43,1.38,1.38,0,0,1,.43,1,1.4,1.4,0,0,1-.43,1.05,1.37,1.37,0,0,1-1,.39,1.47,1.47,0,0,1-1.48-1.48,1.3,1.3,0,0,1,.46-1A1.6,1.6,0,0,1,735,373Z"/><path style="fill:#FFFFFF;"  d="M764.33,374.5a11.39,11.39,0,0,0,6.43-1.8,9.89,9.89,0,0,0,3.94-4.91l1.91.47a11.52,11.52,0,0,1-4.6,5.85,13.52,13.52,0,0,1-7.65,2.14,13.54,13.54,0,1,1,0-27.07,13.52,13.52,0,0,1,7.65,2.14,11.52,11.52,0,0,1,4.6,5.78l-1.87.58a9.67,9.67,0,0,0-3.86-4.91,11.4,11.4,0,0,0-6.44-1.8,11,11,0,0,0-8.19,3.4,12,12,0,0,0,0,16.62,11,11,0,0,0,8.19,3.39Z"/><path style="fill:#FFFFFF;"  d="M793,356.63a5.89,5.89,0,0,1,1.29.12l-.2,1.79a8,8,0,0,0-1.17-.08,7.25,7.25,0,0,0-6,2.7,10.34,10.34,0,0,0-2.14,6.71v8h-1.92V356.75h1.92v5.34a10.66,10.66,0,0,1,3.31-4,8.08,8.08,0,0,1,4.84-1.52Z"/><path style="fill:#FFFFFF;"  d="M815.39,366.54H798.11a7.89,7.89,0,0,0,2.38,5.89,7.61,7.61,0,0,0,5.39,2.22,7.27,7.27,0,0,0,7.37-4.87l1.68.39a9.13,9.13,0,0,1-3.44,4.56,9.77,9.77,0,0,1-5.65,1.56,9.6,9.6,0,0,1-9.64-9.91,9.81,9.81,0,0,1,9.87-10.1,8.77,8.77,0,0,1,6.52,2.61,10,10,0,0,1,2.77,6.83Zm-9.24-8.43A8,8,0,0,0,801,360a7.56,7.56,0,0,0-2.73,5.08h15.29a7.76,7.76,0,0,0-2.38-5.15,7.17,7.17,0,0,0-5-1.88Z"/><path style="fill:#FFFFFF;"  d="M838.61,375.86H836.7v-4a8.56,8.56,0,0,1-3.4,3.27,9.91,9.91,0,0,1-4.8,1.17,9.44,9.44,0,0,1-6.86-2.77,9.66,9.66,0,0,1-2.81-7.21,9.8,9.8,0,0,1,2.81-7.22,9.36,9.36,0,0,1,6.86-2.81,9.91,9.91,0,0,1,4.8,1.17,8.52,8.52,0,0,1,3.4,3.28v-4h1.91Zm-9.91-1.24a8.28,8.28,0,0,0,0-16.55,7.79,7.79,0,0,0-5.66,2.27,8,8,0,0,0-2.34,6,8.11,8.11,0,0,0,2.3,6,7.73,7.73,0,0,0,5.7,2.27Z"/><path style="fill:#FFFFFF;"  d="M856.44,374.69a6.77,6.77,0,0,1-4.18,1.52,5.32,5.32,0,0,1-5.69-5.81v-12h-4.18v-1.64h4.18v-6.28h1.91v6.28h7.14v1.64h-7.14v11.94a4.26,4.26,0,0,0,1,3,3.69,3.69,0,0,0,2.81,1.09,5,5,0,0,0,3.32-1.29Z"/><path style="fill:#FFFFFF;"  d="M877.31,366.54H860a7.89,7.89,0,0,0,2.38,5.89,7.59,7.59,0,0,0,5.38,2.22q5.44,0,7.37-4.87l1.68.39a9.11,9.11,0,0,1-3.43,4.56,9.78,9.78,0,0,1-5.66,1.56,9.58,9.58,0,0,1-9.63-9.91,9.79,9.79,0,0,1,9.87-10.1,8.75,8.75,0,0,1,6.51,2.61,10,10,0,0,1,2.77,6.83Zm-9.24-8.43a7.94,7.94,0,0,0-5.19,1.91,7.61,7.61,0,0,0-2.74,5.08h15.3a7.85,7.85,0,0,0-2.38-5.15,7.19,7.19,0,0,0-5-1.88Z"/></svg>